<?xml version="1.0" standalone="no"?>
<svg viewBox="0 0 200 200" xmlns="http://www.w3.org/2000/svg">
  <path fill="#FFFFFF" d="M29.6,-46.6C43.6,-43.2,63.8,-45.9,70.3,-39.1C76.8,-32.4,69.6,-16.2,69.8,0.1C70,16.4,77.7,32.9,69.9,37.4C62.1,41.8,38.8,34.3,24.6,28.1C10.3,21.9,5.2,17,-5.5,26.4C-16.1,35.8,-32.1,59.6,-33.6,58.5C-35.1,57.3,-22,31.2,-24.3,17.3C-26.6,3.4,-44.3,1.7,-43,0.8C-41.6,-0.2,-21.2,-0.3,-12.1,-2.5C-3.1,-4.7,-5.3,-8.8,-5.2,-20.3C-5,-31.7,-2.5,-50.3,2.6,-54.9C7.8,-59.5,15.6,-50,29.6,-46.6Z" transform="translate(100 100)" />
</svg>
