<?xml version="1.0" standalone="no"?><svg xmlns="http://www.w3.org/2000/svg" viewBox="0 0 1440 320"><path fill="#ffff" fill-opacity="1" d="M0,128L13.3,117.3C26.7,107,53,85,80,96C106.7,107,133,149,160,160C186.7,171,213,149,240,128C266.7,107,293,85,320,80C346.7,75,373,85,400,122.7C426.7,160,453,224,480,256C506.7,288,533,288,560,277.3C586.7,267,613,245,640,229.3C666.7,213,693,203,720,192C746.7,181,773,171,800,186.7C826.7,203,853,245,880,266.7C906.7,288,933,288,960,245.3C986.7,203,1013,117,1040,80C1066.7,43,1093,53,1120,64C1146.7,75,1173,85,1200,90.7C1226.7,96,1253,96,1280,128C1306.7,160,1333,224,1360,218.7C1386.7,213,1413,139,1427,101.3L1440,64L1440,320L1426.7,320C1413.3,320,1387,320,1360,320C1333.3,320,1307,320,1280,320C1253.3,320,1227,320,1200,320C1173.3,320,1147,320,1120,320C1093.3,320,1067,320,1040,320C1013.3,320,987,320,960,320C933.3,320,907,320,880,320C853.3,320,827,320,800,320C773.3,320,747,320,720,320C693.3,320,667,320,640,320C613.3,320,587,320,560,320C533.3,320,507,320,480,320C453.3,320,427,320,400,320C373.3,320,347,320,320,320C293.3,320,267,320,240,320C213.3,320,187,320,160,320C133.3,320,107,320,80,320C53.3,320,27,320,13,320L0,320Z"></path></svg>